<?xml version="1.0" encoding="utf-8"?>
<svg xmlns="http://www.w3.org/2000/svg" xmlns:xlink="http://www.w3.org/1999/xlink" style="margin: auto; background: none; display: block; shape-rendering: auto;" width="120px" height="120px" viewBox="0 0 100 100" preserveAspectRatio="xMidYMid">
<g transform="rotate(0 50 50)">
  <rect x="40" y="4" rx="10" ry="10" width="20" height="20" fill="#011638">
    <animate attributeName="opacity" values="1;0" keyTimes="0;1" dur="0.6711409395973155s" begin="-0.587248322147651s" repeatCount="indefinite"></animate>
  </rect>
</g><g transform="rotate(45 50 50)">
  <rect x="40" y="4" rx="10" ry="10" width="20" height="20" fill="#364156">
    <animate attributeName="opacity" values="1;0" keyTimes="0;1" dur="0.6711409395973155s" begin="-0.5033557046979866s" repeatCount="indefinite"></animate>
  </rect>
</g><g transform="rotate(90 50 50)">
  <rect x="40" y="4" rx="10" ry="10" width="20" height="20" fill="#cdcdcd">
    <animate attributeName="opacity" values="1;0" keyTimes="0;1" dur="0.6711409395973155s" begin="-0.41946308724832215s" repeatCount="indefinite"></animate>
  </rect>
</g><g transform="rotate(135 50 50)">
  <rect x="40" y="4" rx="10" ry="10" width="20" height="20" fill="#011638">
    <animate attributeName="opacity" values="1;0" keyTimes="0;1" dur="0.6711409395973155s" begin="-0.33557046979865773s" repeatCount="indefinite"></animate>
  </rect>
</g><g transform="rotate(180 50 50)">
  <rect x="40" y="4" rx="10" ry="10" width="20" height="20" fill="#364156">
    <animate attributeName="opacity" values="1;0" keyTimes="0;1" dur="0.6711409395973155s" begin="-0.2516778523489933s" repeatCount="indefinite"></animate>
  </rect>
</g><g transform="rotate(225 50 50)">
  <rect x="40" y="4" rx="10" ry="10" width="20" height="20" fill="#cdcdcd">
    <animate attributeName="opacity" values="1;0" keyTimes="0;1" dur="0.6711409395973155s" begin="-0.16778523489932887s" repeatCount="indefinite"></animate>
  </rect>
</g><g transform="rotate(270 50 50)">
  <rect x="40" y="4" rx="10" ry="10" width="20" height="20" fill="#011638">
    <animate attributeName="opacity" values="1;0" keyTimes="0;1" dur="0.6711409395973155s" begin="-0.08389261744966443s" repeatCount="indefinite"></animate>
  </rect>
</g><g transform="rotate(315 50 50)">
  <rect x="40" y="4" rx="10" ry="10" width="20" height="20" fill="#364156">
    <animate attributeName="opacity" values="1;0" keyTimes="0;1" dur="0.6711409395973155s" begin="0s" repeatCount="indefinite"></animate>
  </rect>
</g>
<!-- [ldio] generated by https://loading.io/ --></svg>